<svg xmlns="http://www.w3.org/2000/svg" viewBox="0 0 32 32" width="32" height="32">
  <defs>
    <linearGradient id="bg" x1="0%" y1="0%" x2="100%" y2="100%">
      <stop offset="0%" style="stop-color:#2563eb;stop-opacity:1" />
      <stop offset="100%" style="stop-color:#1d4ed8;stop-opacity:1" />
    </linearGradient>
    <linearGradient id="chart" x1="0%" y1="0%" x2="100%" y2="100%">
      <stop offset="0%" style="stop-color:#ffffff;stop-opacity:1" />
      <stop offset="100%" style="stop-color:#f8fafc;stop-opacity:1" />
    </linearGradient>
  </defs>
  
  <!-- Background circle -->
  <circle cx="16" cy="16" r="15" fill="url(#bg)" stroke="#1e40af" stroke-width="1"/>
  
  <!-- Chart lines -->
  <path d="M8 20 L12 18 L16 22 L20 16 L24 14 L28 12" 
        stroke="url(#chart)" 
        stroke-width="2" 
        stroke-linecap="round" 
        stroke-linejoin="round" 
        fill="none"/>
  
  <!-- Chart area fill -->
  <path d="M8 20 L12 18 L16 22 L20 16 L24 14 L28 12 L28 24 L8 24 Z" 
        fill="url(#chart)" 
        fill-opacity="0.3"/>
  
  <!-- Data points -->
  <circle cx="12" cy="18" r="1.5" fill="#ffffff"/>
  <circle cx="16" cy="22" r="1.5" fill="#ffffff"/>
  <circle cx="20" cy="16" r="1.5" fill="#ffffff"/>
  <circle cx="24" cy="14" r="1.5" fill="#ffffff"/>
  <circle cx="28" cy="12" r="1.5" fill="#ffffff"/>
  
  <!-- S for StkGuru - using path instead of text for better compatibility -->
  <path d="M14 26 Q16 24 18 26 Q16 28 14 26" fill="#ffffff"/>
</svg> 